<?xml version="1.0" encoding="UTF-8"?>
<svg version="1.1" xmlns="http://www.w3.org/2000/svg" width="134" height="134">
<path d="M0 0 C1.4629427 -0.00389664 2.92588429 -0.00823327 4.38882446 -0.01298523 C7.44317302 -0.02041013 10.4974059 -0.02018355 13.55175781 -0.01489258 C17.43711776 -0.00910429 21.32200001 -0.02603135 25.20728111 -0.04923725 C28.22560322 -0.0640756 31.24381294 -0.06483266 34.26216507 -0.06172752 C35.6932838 -0.06223572 37.12440966 -0.06737761 38.5554924 -0.07753944 C51.54220565 -0.15845381 64.03067096 1.2731118 74.046875 10.2734375 C81.4758131 18.0450388 84.7338959 26.92977786 85.16796875 37.58984375 C85.21002441 38.60369141 85.25208008 39.61753906 85.29541016 40.66210938 C85.33456543 41.73912109 85.3737207 42.81613281 85.4140625 43.92578125 C85.4557959 45.04662109 85.4975293 46.16746094 85.54052734 47.32226562 C85.878336 56.99048732 86.02304073 66.62867922 85.8515625 76.30078125 C85.83899414 77.30206055 85.82642578 78.30333984 85.81347656 79.33496094 C85.34195218 111.25427452 85.34195218 111.25427452 74.8515625 122.30078125 C74.32691406 122.85378906 73.80226563 123.40679687 73.26171875 123.9765625 C66.24355772 130.63143049 57.05250932 133.2307588 47.5625 133.6171875 C46.04172852 133.680271 46.04172852 133.680271 44.49023438 133.74462891 C43.41322266 133.78378418 42.33621094 133.82293945 41.2265625 133.86328125 C40.10572266 133.90501465 38.98488281 133.94674805 37.83007812 133.98974609 C28.16185643 134.32755475 18.52366453 134.47225948 8.8515625 134.30078125 C7.8502832 134.28821289 6.84900391 134.27564453 5.81738281 134.26269531 C-26.10193077 133.79117093 -26.10193077 133.79117093 -37.1484375 123.30078125 C-37.70144531 122.77613281 -38.25445312 122.25148438 -38.82421875 121.7109375 C-46.18977301 113.94329343 -48.24735075 104.06608051 -48.30957031 93.64379883 C-48.31917786 92.33836624 -48.3287854 91.03293365 -48.33868408 89.6879425 C-48.34353395 88.2737343 -48.34781232 86.85952404 -48.3515625 85.4453125 C-48.35438988 84.72536291 -48.35721725 84.00541332 -48.36013031 83.26364708 C-48.37507889 79.45139581 -48.3843349 75.63918195 -48.38867188 71.8269043 C-48.39414121 67.91794904 -48.41814888 64.00934478 -48.44664383 60.10049915 C-48.46540415 57.06932116 -48.47048293 54.03822535 -48.47200775 51.00699425 C-48.47500616 49.56749242 -48.48293777 48.12799105 -48.49619293 46.68854713 C-48.61150881 33.20013923 -46.93905065 20.80461955 -37.484375 10.484375 C-26.6607413 0.62448951 -14.01882132 -0.01566609 0 0 Z M-27.203125 19.0625 C-38.58386813 31.08075364 -36.32317264 49.09946748 -36.27880859 64.58251953 C-36.2734397 66.79987415 -36.27880282 69.01702635 -36.28515625 71.234375 C-37.24955592 93.59416562 -37.24955592 93.59416562 -28.6484375 113.23828125 C-27.8234375 113.91890625 -26.9984375 114.59953125 -26.1484375 115.30078125 C-25.5296875 115.85765625 -24.9109375 116.41453125 -24.2734375 116.98828125 C-13.41643709 123.69407562 3.34668902 121.46002481 15.63525391 121.43115234 C18.34673655 121.42579079 21.0580536 121.43112928 23.76953125 121.4375 C44.54688721 122.18819061 44.54688721 122.18819061 63.6640625 115.48828125 C74.46917733 104.68316642 72.96226927 89.09991093 72.98939514 74.8896637 C72.98864827 73.09880417 72.98614128 71.30794458 72.98193359 69.51708984 C72.97657204 66.8056072 72.98191053 64.09429015 72.98828125 61.3828125 C73.73897186 40.60545654 73.73897186 40.60545654 67.0390625 21.48828125 C56.09314908 10.54236783 39.42084221 12.19748754 24.99609375 12.16265869 C23.52066861 12.1635955 22.0452436 12.16618259 20.56982422 12.17041016 C18.3524696 12.17577905 16.1353174 12.17041593 13.91796875 12.1640625 C-7.9404881 11.07877752 -7.9404881 11.07877752 -27.203125 19.0625 Z " fill="#000102" transform="translate(48.1484375,-0.30078125)"/>
<path d="M0 0 C9.52441884 7.09953144 14.75861035 14.32203507 17 26 C17.72365436 32.17062032 16.81542639 36.48645664 14 42 C8.125 41.125 8.125 41.125 7 40 C6.92392171 38.24385958 6.85316793 36.48729185 6.81225586 34.72998047 C6.56124483 25.99085923 5.59823401 18.60787392 -0.86328125 12.1328125 C-6.87255094 7.25538584 -13.24683508 5.22468351 -21 6 C-28.03394396 7.64402832 -33.1543043 10.01607486 -37.62890625 15.7890625 C-41.12548637 21.42742247 -42.81454405 27.36728413 -42 34 C-39.5925813 41.83954295 -36.76857155 47.6324908 -29.5 51.8125 C-22.71880306 55.00247134 -15.76758817 55.11632242 -8.625 53 C-7.325625 52.505 -7.325625 52.505 -6 52 C-2.75 51.75 -2.75 51.75 0 52 C2 54 2 54 2.125 56.625 C2.08375 57.40875 2.0425 58.1925 2 59 C0.44148245 59.82011312 -1.12201716 60.63076213 -2.6875 61.4375 C-3.55761719 61.88996094 -4.42773438 62.34242187 -5.32421875 62.80859375 C-13.21981281 66.32415023 -21.55521751 65.6596102 -29.58984375 62.96484375 C-38.20790172 59.51482702 -44.90092345 53.64972102 -49.390625 45.46484375 C-53.31644272 36.0788218 -53.55933647 26.13531895 -49.9375 16.625 C-45.22889349 6.76184653 -38.96854565 1.41180658 -29 -3 C-19.75401555 -6.08199482 -8.39851541 -4.72180402 0 0 Z " fill="#3EA973" transform="translate(85,37)"/>
<path d="M0 0 C1.9375 1.0625 1.9375 1.0625 3 3 C3.36528977 6.4093712 3.6140629 8.88023824 1.9375 11.9375 C-1.11976176 13.6140629 -3.5906288 13.36528977 -7 13 C-8.9375 11.9375 -8.9375 11.9375 -10 10 C-10.36528977 6.5906288 -10.6140629 4.11976176 -8.9375 1.0625 C-5.88023824 -0.6140629 -3.4093712 -0.36528977 0 0 Z " fill="#FF7428" transform="translate(95,79)"/>
</svg>
